<svg xmlns="http://www.w3.org/2000/svg" width="256" height="256" viewBox="0 0 256 256"><path fill="#fcf3e8" d="M75.6 6l-71 20.9 17.6 59.8 71-20.9zM17.3 33.9l51.3-15.1 11.9 40-51.3 15.1z"/><rect width="80.4" height="9.48" x="18.9" y="76.3" fill="#fcf3e8" rx="4.5" transform="rotate(-16.4 59.145 81.13)"/><path fill="#fcf3e8" d="M96 75.1L24.9 96l19.4 65.7 71-20.9zm-41.8 47.5l-4.4 1.3 1.3 4.4a3 3 0 0 1-1.9 3.6 2.9 2.9 0 0 1-3.5-2l-1.4-4.4-4.4 1.3a2.8 2.8 0 0 1-3.5-1.9 2.7 2.7 0 0 1 1.9-3.5l4.4-1.4-1.3-4.4a2.9 2.9 0 0 1 2-3.5 2.8 2.8 0 0 1 3.5 1.9l1.3 4.4 4.4-1.3a3 3 0 0 1 3.6 1.9 3 3 0 0 1-2 3.6zM64.1 93a2.7 2.7 0 0 1-3.3-1.7 2.7 2.7 0 0 1 1.8-3.3 2.6 2.6 0 0 1 3.2 1.8 2.5 2.5 0 0 1-1.7 3.2zm8.8 54.8a2.6 2.6 0 0 1-3.2-1.8 2.4 2.4 0 0 1 1.7-3.2 2.6 2.6 0 0 1 3.2 1.7 2.5 2.5 0 0 1-1.7 3.3zm.5-28.4a5 5 0 1 1 9.5-2.8 5 5 0 0 1-9.5 2.8zm10.3 25.2a2.6 2.6 0 0 1-3.2-1.8 2.6 2.6 0 0 1 5-1.5 2.7 2.7 0 0 1-1.8 3.3zm5.9-37.1a5 5 0 0 1-6.1-3.4 4.9 4.9 0 0 1 3.3-6.1 5 5 0 0 1 6.2 3.3 5 5 0 0 1-3.4 6.2zm151.2 48.9h-20.4v80.3h20.4a11.2 11.2 0 0 0 11.2-11.2v-57.9a11.2 11.2 0 0 0-11.2-11.2zm-7.3 11a3.5 3.5 0 0 1 4.8-.7 3.4 3.4 0 0 1 .6 4.8 3.5 3.5 0 0 1-4.8.7 3.4 3.4 0 0 1-.6-4.8zm0 14.3a3.4 3.4 0 0 1 4.8-.6 3.3 3.3 0 0 1 .6 4.7 3.5 3.5 0 0 1-4.8.7 3.4 3.4 0 0 1-.6-4.8zm-3.1-8.2a3.4 3.4 0 0 1 .6 4.8 3.5 3.5 0 0 1-4.8.7 3.4 3.4 0 0 1-.6-4.8 3.5 3.5 0 0 1 4.8-.7zm-8.2-13.8h2v-2.1h1.9v2.1h2v1.8h-2v2.1h-1.9v-2.1h-2zm7.3 67.2a3.2 3.2 0 0 1-4.4.6 3 3 0 0 1-.5-4.3 3 3 0 0 1 4.3-.6 3.1 3.1 0 0 1 .6 4.3zm11.6-18.3a6.3 6.3 0 0 1-8.7 1.2 6.2 6.2 0 1 1 8.7-1.2zm5.7-30.3a3.4 3.4 0 1 1-.7-4.8 3.5 3.5 0 0 1 .7 4.8zM83.4 156.4a11.3 11.3 0 0 0-11.3 11.2v57.9a11.3 11.3 0 0 0 11.3 11.2h20.4v-80.3zm-.6 50.2a3.4 3.4 0 1 1-.6-4.8 3.5 3.5 0 0 1 .6 4.8zm.3-34.1a6.1 6.1 0 0 1 8.6-1.1 6.2 6.2 0 0 1 1.2 8.6 6.3 6.3 0 0 1-8.7 1.2 6.2 6.2 0 0 1-1.1-8.7zm7.6 41.6a3.4 3.4 0 1 1-.6-4.8 3.5 3.5 0 0 1 .6 4.8zm0-14.3a3.4 3.4 0 1 1-.6-4.8 3.5 3.5 0 0 1 .6 4.8zM99 225h-5.8v-5.8H99zm-.4-18.4a3.4 3.4 0 0 1-4.8.6 3.5 3.5 0 0 1-.7-4.8 3.4 3.4 0 0 1 4.8-.6 3.5 3.5 0 0 1 .7 4.8zm2.2-46h-5.9v-1.9h5.9z"/><path fill="#fcf3e8" d="M103.8 160.6v76.1h116.6v-76.1zm111.9 72.6H107.8v-69.6h107.9z"/></svg>