<svg enable-background="new 0 0 256 256" viewBox="0 0 256 256" xmlns="http://www.w3.org/2000/svg"><g fill="#fcf3e8"><path d="m130.9 3.6-108.3 44.4 41.9 102.1 108.2-44.4zm-87.2 52.5 77.9-31.9 30.1 73.5-77.9 31.9z"/><path d="m179.4 121-111.5 44.6c-4.5 1.8-9.7-.4-11.5-4.9-1.8-4.5.4-9.7 4.9-11.5l111.6-44.6c4.5-1.8 9.7.4 11.5 4.9 1.8 4.5-.4 9.7-5 11.5z"/><path d="m176.9 119-108.6 43.5 36 89.9 108.6-43.4zm-53.6 73.9-8.4 3.4 3.4 8.4c1 2.5-.2 5.4-2.7 6.4s-5.4-.2-6.4-2.7l-3.4-8.4-8.4 3.4c-2.5 1-5.4-.2-6.4-2.7-1-2.5.2-5.4 2.7-6.4l8.4-3.4-3.4-8.4c-1-2.5.2-5.4 2.7-6.4 2.5-1 5.4.2 6.4 2.7l3.4 8.4 8.4-3.4c2.5-1 5.4.2 6.4 2.7s-.2 5.4-2.7 6.4zm3-38.3c-2.5 0-4.5-2-4.5-4.5s2-4.5 4.5-4.5 4.5 2 4.5 4.5c.1 2.5-2 4.5-4.5 4.5zm22.4 75.3c-2.5 0-4.5-2-4.5-4.5s2-4.5 4.5-4.5 4.5 2 4.5 4.5c.1 2.4-2 4.5-4.5 4.5zm15-6.3c-2.5 0-4.5-2-4.5-4.5s2-4.5 4.5-4.5 4.5 2 4.5 4.5c0 2.4-2 4.5-4.5 4.5zm2.1-41.1c-3.8 0-6.9-3.1-6.9-6.9s3.1-6.9 6.9-6.9 6.9 3.1 6.9 6.9-3 6.9-6.9 6.9zm6.9-20.8c-3.8 0-6.9-3.1-6.9-6.9s3.1-6.9 6.9-6.9 6.9 3.1 6.9 6.9-3.1 6.9-6.9 6.9z"/></g></svg>