<svg xmlns="http://www.w3.org/2000/svg" width="256" height="256" viewBox="0 0 256 256"><rect width="166.7" height="13.84" x="29.1" y="125" fill="#fcf3e8" rx="6.5" transform="rotate(-17.5 112.692 132.075)"/><path fill="#fcf3e8" d="M149.8 7.2L1.7 56.7l37.4 92.1 144.2-45.7zM17 62.2l126.8-45.5 28.3 78.6-126.9 45.5zm172 51.2L42.9 159.5l37.1 64 174.3-57.1zm4.6 17.9a4.7 4.7 0 0 1-2.7 6.1l-7.7 3a4.6 4.6 0 0 1-6.1-2.6h-.1a4.8 4.8 0 0 1 2.7-6.1l7.7-3.1a4.8 4.8 0 0 1 6.2 2.7zm-48.2 38.5l7.8-3a4.7 4.7 0 0 1 6.1 2.6 4.8 4.8 0 0 1-2.6 6.2l-7.8 3a4.7 4.7 0 0 1-6.1-2.6 4.8 4.8 0 0 1 2.6-6.2zm-6.8-4.4a4.6 4.6 0 0 1 2.6-6.1l7.8-3.1a4.8 4.8 0 0 1 6.1 2.7 4.7 4.7 0 0 1-2.6 6.1l-7.8 3a4.6 4.6 0 0 1-6.1-2.6zm24-14.7l7.7-3a4.6 4.6 0 0 1 6.1 2.6v.2a4.8 4.8 0 0 1-2.7 6.1l-7.7 3a4.8 4.8 0 0 1-6.2-2.6 4.7 4.7 0 0 1 2.8-6.3zm4.2 10.7l7.7-3a4.6 4.6 0 0 1 6.1 2.6h.1a4.8 4.8 0 0 1-2.7 6.1l-7.7 3.1a4.7 4.7 0 0 1-6.1-2.7h-.1a4.8 4.8 0 0 1 2.7-6.1zm8.7-40.4l7.7-3.1a4.8 4.8 0 0 1 6.1 2.7h.1a4.8 4.8 0 0 1-2.7 6.1l-7.7 3.1a4.8 4.8 0 0 1-6.1-2.7h-.1a4.8 4.8 0 0 1 2.7-6.1zm-3.3 18.7h.1a4.8 4.8 0 0 1-2.7 6.1l-7.8 3.1a4.8 4.8 0 0 1-6.1-2.7 4.6 4.6 0 0 1 2.6-6.1l7.8-3.1a4.8 4.8 0 0 1 6.1 2.7zm-18.1-10.3l7.8-3.1a4.8 4.8 0 0 1 6.1 2.7 4.6 4.6 0 0 1-2.6 6.1l-7.8 3.1a4.8 4.8 0 0 1-6.1-2.7 4.7 4.7 0 0 1 2.6-6.1zm-3.2 18.7a4.6 4.6 0 0 1-2.6 6.1l-7.8 3.1a4.8 4.8 0 0 1-6.1-2.7h-.1a4.8 4.8 0 0 1 2.7-6.1l7.7-3.1a4.9 4.9 0 0 1 6.2 2.7zm-18.1-10.3l7.7-3a4.8 4.8 0 0 1 6.2 2.6 4.8 4.8 0 0 1-2.7 6.2l-7.7 3a4.6 4.6 0 0 1-6.1-2.6v-.2a4.8 4.8 0 0 1 2.6-6zm-3.3 18.7h.1a4.8 4.8 0 0 1-2.7 6.1l-7.7 3.1a4.7 4.7 0 0 1-6.2-2.7 4.6 4.6 0 0 1 2.7-6.1l7.7-3a4.6 4.6 0 0 1 6.1 2.6zm-18.1-10.3l7.8-3a4.6 4.6 0 0 1 6.1 2.6v.2a4.8 4.8 0 0 1-2.7 6.1l-7.7 3a4.8 4.8 0 0 1-6.2-2.6 4.8 4.8 0 0 1 2.7-6.3zm-3.2 18.7a4.8 4.8 0 0 1-2.6 6.2l-7.8 3a4.6 4.6 0 0 1-6.1-2.6 4.8 4.8 0 0 1 2.6-6.2l7.8-3a4.7 4.7 0 0 1 6.1 2.6zm-18.1-10.2l7.7-3.1a4.9 4.9 0 0 1 6.2 2.7 4.7 4.7 0 0 1-2.6 6.1l-7.8 3.1a4.8 4.8 0 0 1-6.1-2.7h-.1a4.8 4.8 0 0 1 2.7-6.1zm-24 14.6a4.6 4.6 0 0 1 2.7-6.1l7.7-3.1a4.8 4.8 0 0 1 6.1 2.7h.1a4.8 4.8 0 0 1-2.7 6.1l-7.7 3.1a4.9 4.9 0 0 1-6.2-2.7zm4.3 10.7h-.1a4.8 4.8 0 0 1 2.7-6.1l7.7-3.1a4.7 4.7 0 0 1 6.1 2.7h.1a4.8 4.8 0 0 1-2.7 6.1l-7.7 3a4.6 4.6 0 0 1-6.1-2.6zm4.2 10.7v-.2a4.8 4.8 0 0 1 2.7-6.1l7.7-3a4.6 4.6 0 0 1 6 2.6h.1a4.9 4.9 0 0 1-2.7 6.2l-7.7 3a4.6 4.6 0 0 1-6.1-2.5zm18 10.2l-7.7 3.1a4.8 4.8 0 0 1-6.1-2.7h-.1a4.8 4.8 0 0 1 2.7-6.1l7.7-3.1a4.8 4.8 0 0 1 6.1 2.7h.1a4.8 4.8 0 0 1-2.7 6.1zm3.3-18.7a4.7 4.7 0 0 1 2.6-6.1l7.8-3.1a4.8 4.8 0 0 1 6.1 2.7 4.6 4.6 0 0 1-2.6 6.1l-7.8 3.1a4.8 4.8 0 0 1-6.1-2.7zm18.1 10.3l-7.8 3.1a4.8 4.8 0 0 1-6.1-2.7 4.6 4.6 0 0 1 2.6-6.1l7.8-3.1a4.8 4.8 0 0 1 6.1 2.7 4.7 4.7 0 0 1-2.6 6.1zm3.3-18.7h-.1a4.8 4.8 0 0 1 2.7-6.1l7.7-3.1a4.8 4.8 0 0 1 6.1 2.7h.1a4.8 4.8 0 0 1-2.7 6.1l-7.7 3.1a4.8 4.8 0 0 1-6.1-2.7zm4.2 10.7h-.1a4.8 4.8 0 0 1 2.7-6.1l7.7-3.1a4.6 4.6 0 0 1 6.1 2.7h.1a4.8 4.8 0 0 1-2.7 6.1l-7.7 3a4.6 4.6 0 0 1-6.1-2.6zm54.9 4.1l-34 12.2a8 8 0 0 1-10.2-4.8l-.5-1.5a8 8 0 0 1 4.8-10.2l34-12.2a8.1 8.1 0 0 1 10.2 4.8l.5 1.5a8 8 0 0 1-4.8 10.2zm4.9-40.1h-.1a4.8 4.8 0 0 1 2.7-6.1l7.7-3a4.8 4.8 0 0 1 6.2 2.6 4.6 4.6 0 0 1-2.6 6.1l-7.8 3.1a4.6 4.6 0 0 1-6.1-2.7zm18.1 10.3l-7.8 3.1a4.8 4.8 0 0 1-6.1-2.7 4.6 4.6 0 0 1 2.6-6.1l7.8-3.1a4.8 4.8 0 0 1 6.1 2.7 4.6 4.6 0 0 1-2.6 6.1z"/></svg>