<svg xmlns="http://www.w3.org/2000/svg" width="256" height="256" viewBox="0 0 256 256"><path fill="#fcf3e8" d="M81 20.5l64.4-16.1 48.2 99-68 10.8L81 20.5zm143.1 155.7l7.7 31.2a15.1 15.1 0 0 1-11 18.2 15 15 0 0 1-18.2-11l-7.7-31.2m-82.8-6.6l-7.7 31.2a15 15 0 0 0 11 18.2 15 15 0 0 0 18.2-11l7.7-31.2m58.4-36.5a6.9 6.9 0 0 1 6.9-6.9h4.9a6.9 6.9 0 0 1 6.8 6.9m-99.6-1.7a6.9 6.9 0 0 1 6.9-6.9h4.8a6.9 6.9 0 0 1 6.9 6.9m-6.9 6.9h-4.8"/><rect width="4.8" height="7.65" x="194.9" y="143.8" rx="2.3" transform="rotate(-1.6 191.36 145.93)"/><path fill="#fcf3e8" d="M152.3 200a12.2 12.2 0 1 0-12.1-12.2 12.2 12.2 0 0 0 12.1 12.2zm.1-21.6a7.1 7.1 0 1 1-7.2 7.1 7.1 7.1 0 0 1 7.2-7.1zm31.1 21.5a12.2 12.2 0 1 0-12.1-12.2 12.2 12.2 0 0 0 12.1 12.2zm.1-21.6a7.1 7.1 0 0 1 7.1 7.2 7.1 7.1 0 1 1-7.1-7.2z"/><path fill="#fcf3e8" d="M221 152.3c0-5.2-5-9.5-11.1-9.5h-16.3v24.6h-48v-24.6h-19.1c-6.1 0-11.1 4.3-11.1 9.5l-4.2 30.3c0 5.2 5.4 9.5 12 9.5H151a7.2 7.2 0 1 1 2.7 0h28.5a7.2 7.2 0 1 1 2.7 0h28.2c6.6 0 12-4.3 12-9.5zm-87.7 1.1l-.7 6.4s-2.4 5.8-5 0l-1.1-6.4s3.7-4.5 6.8 0zm-14.5 14c-4.5-3.1 0-6.8 0-6.8l6.4 1.1c5.8 2.6 0 5 0 5zm7.7 7.5l.7-6.4s2.3-5.7 5 0l1.1 6.4s-3.8 4.5-6.8 0zm14.1-7.5l-6.4-.7s-5.7-2.4 0-5l6.4-1.1s4.5 3.7 0 6.8zm1-15.9h-.1a2.3 2.3 0 0 1-2.4-2.3v-3a2.5 2.5 0 0 1 2.3-2.4h.1a2.4 2.4 0 0 1 2.4 2.3v3a2.3 2.3 0 0 1-2.3 2.4zm27.1 27.5a4.3 4.3 0 1 1 4.3-4.3 4.2 4.2 0 0 1-4.3 4.3zm39-27.6a4.3 4.3 0 1 1-4.2 4.2 4.2 4.2 0 0 1 4.2-4.2zm-8.5 17a4.3 4.3 0 1 1 0-8.5 4.3 4.3 0 1 1 0 8.5zm8.5 8.6a4.3 4.3 0 1 1 4.3-4.3 4.2 4.2 0 0 1-4.3 4.3zm8.5-8.6a4.3 4.3 0 0 1 0-8.5 4.3 4.3 0 1 1 0 8.5zm-158.1-53l-1 .3.7 2.7 1-.3a1.4 1.4 0 1 0-.7-2.7zm20.1-1.2l2.7-.8-1-3.5-1.7 4.3z"/><path fill="#fcf3e8" d="M141.6 5.3L5.4 38.7l47.7 107.1 140.5-33.7zm-82 115.4l-1 .2.9 3.3-3.3.9L53 114l4.2-1.2c4.5-1.3 5.5.9 6 2.6s.9 4-3.6 5.3zm11.8.3c-3.4.9-5.4 0-6.2-2.7l3.3-1c.3 1.2 1 1.5 2.1 1.1s1.4-.7 1.2-1.3-.7-.7-2.9-.5-4.1-.5-4.6-2.2.7-4 3.7-4.8 5.1 0 5.8 2.6l-3.3 1c-.3-1.1-.8-1.4-1.9-1.1s-1.2.7-1 1.2 1.4.6 2.6.6c2.9-.1 4.3.3 4.8 2.1s-.8 4.2-3.6 5zm14-4.2l-3.3.9-.6-1.9-5.3 1.5-.7-2.6 2.9-7.9 3.9-1.1 1.9 6.8 1.6-.5.7 2.4-1.6.4z"/></svg>